<svg width="45" height="30" viewBox="0 0 24 16" fill="none" xmlns="http://www.w3.org/2000/svg"><rect width="24.3333" height="16" rx="2" fill="white"></rect><g clip-path="url(#clip0_429_843)"><path d="M3.47617 3.33333H3.66934V8.25159H3.47617V3.33333ZM3.86251 3.33333H4.05568V8.25159H3.86251V3.33333ZM5.02239 3.33333H5.21556V8.25159H5.02239V3.33333ZM8.78244 3.33333H8.97561V8.25159H8.78244V3.33333ZM10.0395 3.33333H10.2326V8.25159H10.0395V3.33333ZM11.2584 3.33333H11.4516V8.25159H11.2584V3.33333ZM11.5725 3.33333H11.7657V8.25159H11.5728L11.5725 3.33333ZM11.8871 3.33333H12.0803V8.25159H11.8871V3.33333ZM12.2407 3.33333H12.4338V8.25159H12.2407L12.2407 3.33333ZM12.5941 3.33333H12.7873V8.25159H12.5941V3.33333ZM13.5769 3.33333H13.77V8.25159H13.5766L13.5769 3.33333ZM16.0134 3.33333H16.2066V8.25159H16.0134V3.33333ZM18.555 3.33333H18.7481V8.25159H18.5549L18.555 3.33333ZM19.2502 3.33333H19.4433V8.25159H19.2502V3.33333ZM19.7528 3.33333H19.9459V8.25159H19.7528V3.33333ZM20.062 3.33333H20.2552V8.25159H20.062V3.33333ZM6.29807 3.33333H6.49124V8.25159H6.29807V3.33333ZM4.36511 3.33333H4.71296V8.25159H4.36511V3.33333ZM6.66061 3.33333H7.00839V8.25159H6.66061V3.33333ZM8.27243 3.33333H8.62022V8.25159H8.27243V3.33333ZM9.09763 3.33333H9.44541V8.25159H9.09763V3.33333ZM10.3945 3.33333H10.7423V8.25159H10.3945V3.33333ZM14.0918 3.33333H14.6327V8.25159H14.0918V3.33333ZM14.7984 3.33333H15.2233V8.25159H14.7979L14.7984 3.33333ZM15.544 3.33333H15.8918V8.25159H15.544V3.33333ZM16.53 3.33333H17.1099V8.25159H16.53V3.33333ZM17.6656 3.33333H18.2456V8.25159H17.6656V3.33333ZM5.40893 3.33333H6.1045V8.25159H5.40893V3.33333ZM7.21181 3.33333H7.75277V8.25159H7.21181V3.33333Z" fill="#010101"></path><path d="M3.72637 12.6185V9.80347H4.82799C5.01208 9.79665 5.1957 9.82569 5.36776 9.88882C5.49964 9.94288 5.61082 10.0348 5.68599 10.1519C5.76049 10.2628 5.80048 10.3917 5.80125 10.5235C5.80126 10.6438 5.76587 10.7616 5.69915 10.8634C5.62398 10.9755 5.51697 11.0647 5.39071 11.1205C5.55274 11.1605 5.69672 11.2501 5.80073 11.3758C5.89697 11.4984 5.94737 11.6486 5.94383 11.8021C5.94498 11.9295 5.9152 12.0554 5.85687 12.1699C5.80756 12.2725 5.73348 12.3624 5.64076 12.4322C5.54424 12.4986 5.43496 12.546 5.31922 12.5717C5.16404 12.6058 5.0051 12.6216 4.84592 12.6189L3.72637 12.6185ZM4.11523 10.9865H4.75009C4.87408 10.9911 4.99817 10.9801 5.11917 10.9538C5.20774 10.9323 5.28627 10.883 5.3423 10.8138C5.39447 10.7418 5.42081 10.6556 5.41736 10.568C5.41915 10.4811 5.39481 10.3955 5.34726 10.3214C5.30189 10.2512 5.23135 10.1991 5.14887 10.1751C5.0025 10.1429 4.85226 10.1296 4.70221 10.1358H4.11536L4.11523 10.9865ZM4.11523 12.2864H4.84605C4.93445 12.2887 5.0229 12.2842 5.11058 12.2731C5.18988 12.2608 5.26601 12.2341 5.3349 12.1944C5.39785 12.1554 5.44893 12.1012 5.48296 12.0372C5.5227 11.9644 5.54274 11.8833 5.54123 11.8012C5.54396 11.7032 5.51456 11.6069 5.45717 11.5259C5.40052 11.448 5.31838 11.3906 5.22379 11.3627C5.08394 11.3264 4.93919 11.3105 4.7944 11.3155H4.11523V12.2864ZM6.51158 11.2478C6.48694 10.8466 6.62788 10.4523 6.90394 10.15C7.03405 10.0189 7.19165 9.91587 7.36634 9.84753C7.54103 9.77919 7.72885 9.74714 7.91741 9.7535C8.17489 9.75014 8.42839 9.81463 8.65028 9.93993C8.86596 10.0622 9.03907 10.243 9.14779 10.4594C9.26496 10.6952 9.3235 10.9538 9.3188 11.2149C9.32373 11.4804 9.26214 11.7431 9.13919 11.981C9.02755 12.1975 8.84933 12.376 8.62859 12.4923C8.41036 12.6077 8.16495 12.6675 7.91575 12.6661C7.65501 12.6702 7.39832 12.6038 7.17508 12.4746C6.96028 12.3497 6.78822 12.1674 6.68008 11.95C6.56857 11.7314 6.51092 11.4911 6.51158 11.2478V11.2478ZM6.91227 11.2537C6.8956 11.5466 6.99857 11.8342 7.19935 12.0556C7.28992 12.1507 7.40072 12.226 7.52426 12.2766C7.6478 12.3271 7.78121 12.3516 7.91549 12.3485C8.05056 12.3518 8.18478 12.327 8.30894 12.2759C8.4331 12.2248 8.54426 12.1486 8.6348 12.0524C8.83738 11.8175 8.93877 11.5173 8.91824 11.2132C8.92361 11.0072 8.88291 10.8026 8.79887 10.613C8.72481 10.4495 8.6014 10.311 8.44454 10.2154C8.28778 10.121 8.1059 10.0719 7.92078 10.0742C7.78959 10.0723 7.65931 10.0954 7.53746 10.142C7.41561 10.1886 7.30461 10.258 7.21085 10.346C7.09993 10.4701 7.0163 10.6145 6.965 10.7704C6.91369 10.9263 6.89575 11.0905 6.91227 11.2532V11.2537ZM9.95585 12.6187V9.80347H10.3442V12.2862H11.7899V12.6185L9.95585 12.6187ZM12.4125 12.6187V9.80347H14.5353V10.1358H12.8009V10.9982H14.425V11.3285H12.8009V12.2865H14.6035V12.6189L12.4125 12.6187ZM16.0389 12.6187V10.1358H15.0712V9.80347H17.3982V10.1358H16.427V12.6185L16.0389 12.6187ZM17.7565 11.2478C17.7322 10.8466 17.8735 10.4523 18.1498 10.1502C18.2799 10.0191 18.4375 9.91605 18.6122 9.84771C18.7869 9.77937 18.9747 9.74732 19.1632 9.75369C19.4207 9.75032 19.6742 9.81481 19.8961 9.94013C20.1118 10.0624 20.2849 10.2431 20.3936 10.4596C20.5109 10.6954 20.5694 10.954 20.5646 11.2151C20.5694 11.4806 20.5077 11.7434 20.3846 11.9812C20.2726 12.1981 20.0938 12.3767 19.8724 12.4929C19.6541 12.6082 19.4087 12.6681 19.1595 12.6667C18.8986 12.6708 18.6418 12.6043 18.4185 12.4748C18.2041 12.3498 18.0325 12.1674 17.9247 11.9502C17.8132 11.7315 17.7557 11.4912 17.7565 11.2478V11.2478ZM18.1572 11.2537C18.1405 11.5466 18.2435 11.8342 18.4443 12.0556C18.5348 12.1507 18.6456 12.226 18.7692 12.2766C18.8927 12.3271 19.0261 12.3516 19.1604 12.3485C19.2959 12.3522 19.4305 12.3277 19.5552 12.2766C19.6798 12.2255 19.7914 12.1492 19.8822 12.0528C20.0848 11.8179 20.1862 11.5177 20.1656 11.2135C20.1698 11.0074 20.1278 10.8027 20.0425 10.6134C19.9684 10.4499 19.845 10.3114 19.6882 10.2158C19.5315 10.1214 19.3498 10.0724 19.1648 10.0746C19.0336 10.0727 18.9033 10.0957 18.7814 10.1424C18.6596 10.189 18.5485 10.2583 18.4548 10.3464C18.3441 10.4705 18.2607 10.6148 18.2095 10.7707C18.1584 10.9265 18.1406 11.0906 18.1572 11.2532V11.2537Z" fill="black"></path></g><defs><clipPath id="clip0_429_843"><rect width="17.0887" height="9.33333" fill="white" transform="translate(3.4762 3.33334)"></rect></clipPath></defs></svg>