<svg xmlns="http://www.w3.org/2000/svg" width="45" height="30.857142857142858" fill="none" viewBox="0 0 70 48"><g clip-path="url(#a)"><path fill="#fff" d="M64 0H6a6 6 0 0 0-6 6v36a6 6 0 0 0 6 6h58a6 6 0 0 0 6-6V6a6 6 0 0 0-6-6Z"></path><path stroke="#424447" stroke-linecap="round" stroke-linejoin="round" stroke-width="0.751" d="M29.505 34.319V21.224a4.362 4.362 0 0 1 4.362-4.36h3.862a4.356 4.356 0 0 1 4.347 4.355v2.787a4.363 4.363 0 0 1-4.362 4.363h-5.462M43.16 16.86h1.673a1.79 1.79 0 0 1 1.79 1.791v9.784"></path><path fill="#32BCAD" d="m46.262 15.346-.76-.761a.483.483 0 0 1 0-.684l.76-.76a.485.485 0 0 1 .684 0l.76.76a.483.483 0 0 1 0 .684l-.76.76a.483.483 0 0 1-.684 0Z"></path><path stroke="#424447" stroke-linecap="round" stroke-linejoin="round" stroke-width="0.751" d="M49.845 16.853h1.663c.855 0 1.676.34 2.28.945l3.89 3.889a1.288 1.288 0 0 0 1.825 0l3.88-3.875a3.224 3.224 0 0 1 2.28-.945h1.353M49.845 28.347h1.663c.855 0 1.676-.34 2.28-.945l3.89-3.887a1.287 1.287 0 0 1 1.825 0l3.88 3.873a3.224 3.224 0 0 0 2.28.945h1.353"></path><path fill="#32BCAD" d="M19.59 30.831a3.103 3.103 0 0 1-2.21-.915l-3.191-3.183a.605.605 0 0 0-.838 0l-3.203 3.201a3.103 3.103 0 0 1-2.21.915H7.31l4.04 4.042a3.234 3.234 0 0 0 4.571 0l4.053-4.053-.384-.007ZM7.938 19.545a3.112 3.112 0 0 1 2.21.915l3.203 3.203a.593.593 0 0 0 .838 0l3.19-3.192a3.11 3.11 0 0 1 2.211-.915h.386l-4.052-4.052a3.23 3.23 0 0 0-4.571 0l-4.04 4.04h.625Z"></path><path fill="#32BCAD" d="m23.327 22.908-2.446-2.446a.486.486 0 0 1-.174.035h-1.113a2.197 2.197 0 0 0-1.545.644l-3.196 3.185a1.527 1.527 0 0 1-1.083.447c-.406.001-.796-.16-1.083-.446l-3.203-3.203a2.197 2.197 0 0 0-1.545-.643H6.571a.466.466 0 0 1-.165-.034l-2.459 2.459a3.23 3.23 0 0 0 0 4.57l2.459 2.46a.466.466 0 0 1 .165-.034h1.368a2.201 2.201 0 0 0 1.545-.644l3.203-3.202a1.57 1.57 0 0 1 2.166 0l3.191 3.19c.41.41.965.642 1.545.644h1.113c.06.001.119.013.174.036l2.446-2.445a3.234 3.234 0 0 0 0-4.571"></path></g><defs><clipPath id="a"><path fill="#fff" d="M0 0h70v48H0z"></path></clipPath></defs></svg>